<?xml version="1.0" encoding="UTF-8"?>
<svg id="Layer_1" data-name="Layer 1" xmlns="http://www.w3.org/2000/svg" viewBox="0 0 654.79 336.6">
  <defs>
    <style>
      .cls-1, .cls-2 {
        fill: #ff4343;
      }

      .cls-1, .cls-3 {
        stroke-width: 0px;
      }

      .cls-2 {
        stroke: #fff;
        stroke-width: 4px;
      }

      .cls-3 {
        fill: #fff;
      }
    </style>
  </defs>
  <g>
    <path class="cls-1" d="M74.2,145.6c-10.53,0-20.3-1.83-29.3-5.5-9-3.67-16.87-8.83-23.6-15.5-6.73-6.67-11.97-14.43-15.7-23.3-3.73-8.87-5.6-18.43-5.6-28.7s1.87-19.83,5.6-28.7c3.73-8.87,8.97-16.57,15.7-23.1,6.73-6.53,14.57-11.63,23.5-15.3C53.73,1.83,63.53,0,74.2,0c11.2,0,21.17,1.8,29.9,5.4,8.73,3.6,16.37,8.53,22.9,14.8l-21.2,21.4c-3.6-4-8.03-7.13-13.3-9.4-5.27-2.27-11.37-3.4-18.3-3.4-6.13,0-11.73,1.03-16.8,3.1-5.07,2.07-9.47,5.03-13.2,8.9-3.73,3.87-6.6,8.53-8.6,14-2,5.47-3,11.4-3,17.8s1,12.7,3,18.1c2,5.4,4.87,10.07,8.6,14,3.73,3.93,8.13,6.93,13.2,9,5.07,2.07,10.67,3.1,16.8,3.1,7.2,0,13.47-1.1,18.8-3.3,5.33-2.2,9.87-5.37,13.6-9.5l21.4,21.4c-6.67,6.4-14.4,11.37-23.2,14.9s-19,5.3-30.6,5.3Z"/>
    <path class="cls-1" d="M300.8,145.6c-8.8,0-16.7-1.87-23.7-5.6-7-3.73-12.44-8.83-16.3-15.3-3.87-6.47-5.8-13.9-5.8-22.3v-56.2h30.8v55.8c0,3.33.6,6.23,1.8,8.7,1.2,2.47,2.93,4.37,5.2,5.7,2.27,1.33,4.93,2,8,2,4.53,0,8.1-1.47,10.7-4.4,2.6-2.93,3.9-6.93,3.9-12v-55.8h30.8v56.2c0,8.53-1.9,16.03-5.7,22.5-3.8,6.47-9.1,11.53-15.9,15.2-6.8,3.67-14.73,5.5-23.8,5.5Z"/>
    <path class="cls-1" d="M365.19,143.4V46.2h30.8v97.2h-30.8ZM429.59,143.4v-55.4c0-4.93-1.6-8.97-4.8-12.1-3.2-3.13-7.2-4.7-12-4.7-3.2,0-6.07.7-8.6,2.1-2.53,1.4-4.53,3.37-6,5.9-1.47,2.53-2.2,5.47-2.2,8.8l-11.8-5.8c0-7.6,1.7-14.27,5.1-20,3.4-5.73,8.07-10.17,14-13.3,5.93-3.13,12.63-4.7,20.1-4.7,7.07,0,13.4,1.67,19,5,5.6,3.33,10,7.83,13.2,13.5,3.2,5.67,4.8,11.83,4.8,18.5v62.2h-30.8Z"/>
    <path class="cls-1" d="M471.59,72.4v-26.2h74.6v26.2h-74.6ZM493.39,143.4V6h30.8v137.4h-30.8Z"/>
    <path class="cls-1" d="M589.39,144l-40-97.8h33.2l25.4,77.4h-12.2l25.8-77.4h33.2l-41.6,97.8h-23.8ZM564.39,184.4l29.2-63.2,19.6,22.8-17.2,40.4h-31.6Z"/>
    <path class="cls-1" d="M11.9,334.4v-141.2h31.6v141.2H11.9ZM30.9,275.6v-27.4h78.8v27.4H30.9ZM99.3,334.4v-141.2h31.8v141.2h-31.8Z"/>
    <path class="cls-1" d="M198.5,336.6c-8.8,0-16.7-1.87-23.7-5.6-7-3.73-12.43-8.83-16.3-15.3-3.87-6.47-5.8-13.9-5.8-22.3v-56.2h30.8v55.8c0,3.33.6,6.23,1.8,8.7,1.2,2.47,2.93,4.37,5.2,5.7,2.27,1.33,4.93,2,8,2,4.53,0,8.1-1.47,10.7-4.4,2.6-2.93,3.9-6.93,3.9-12v-55.8h30.8v56.2c0,8.53-1.9,16.03-5.7,22.5-3.8,6.47-9.1,11.53-15.9,15.2-6.8,3.67-14.73,5.5-23.8,5.5Z"/>
    <path class="cls-1" d="M262.9,334.4v-97.2h30.8v97.2h-30.8ZM327.3,334.4v-55.4c0-4.93-1.6-8.96-4.8-12.1-3.2-3.13-7.2-4.7-12-4.7-3.2,0-6.07.7-8.6,2.1-2.53,1.4-4.53,3.37-6,5.9-1.47,2.53-2.2,5.47-2.2,8.8l-11.8-5.8c0-7.6,1.7-14.27,5.1-20,3.4-5.73,8.07-10.17,14-13.3,5.93-3.13,12.63-4.7,20.1-4.7,7.07,0,13.4,1.67,19,5,5.6,3.33,10,7.83,13.2,13.5,3.2,5.67,4.8,11.83,4.8,18.5v62.2h-30.8Z"/>
    <path class="cls-1" d="M369.29,263.4v-26.2h74.6v26.2h-74.6ZM391.1,334.4v-137.4h30.8v137.4h-30.8Z"/>
    <path class="cls-1" d="M505.09,336.6c-10.53,0-19.87-2.17-28-6.5-8.13-4.33-14.53-10.37-19.2-18.1-4.67-7.73-7-16.53-7-26.4s2.27-18.23,6.8-25.9c4.53-7.67,10.73-13.7,18.6-18.1,7.87-4.4,16.73-6.6,26.6-6.6s18.27,2.07,25.6,6.2c7.33,4.13,13.13,9.87,17.4,17.2,4.27,7.33,6.4,15.73,6.4,25.2,0,1.87-.1,3.77-.3,5.7-.2,1.93-.63,4.1-1.3,6.5l-83.6.4v-21.2l70.4-.4-13.2,9c-.13-5.47-1-10.03-2.6-13.7-1.6-3.67-3.97-6.5-7.1-8.5-3.13-2-6.9-3-11.3-3-4.8,0-8.97,1.13-12.5,3.4-3.53,2.27-6.27,5.4-8.2,9.4-1.93,4-2.9,8.8-2.9,14.4s1.03,10.47,3.1,14.6c2.07,4.13,5,7.3,8.8,9.5,3.8,2.2,8.3,3.3,13.5,3.3,4.67,0,8.93-.83,12.8-2.5,3.87-1.67,7.27-4.17,10.2-7.5l17,16.8c-4.8,5.73-10.6,9.97-17.4,12.7-6.8,2.73-14.33,4.1-22.6,4.1Z"/>
    <path class="cls-1" d="M566.69,334.4v-97.2h30.8v97.2h-30.8ZM597.49,281.2l-12.8-10c2.53-11.47,6.83-20.33,12.9-26.6,6.07-6.27,14.37-9.4,24.9-9.4,4.67,0,8.77.7,12.3,2.1,3.53,1.4,6.63,3.5,9.3,6.3l-18.2,23.2c-1.2-1.33-2.8-2.4-4.8-3.2s-4.27-1.2-6.8-1.2c-5.2,0-9.3,1.57-12.3,4.7-3,3.13-4.5,7.83-4.5,14.1Z"/>
  </g>
  <g>
    <path class="cls-2" d="M266.96,94.7c0,43.46-78.73,131.21-78.73,131.21,0,0-78.73-87.75-78.73-131.21S144.78,15.98,188.24,15.98s78.73,35.27,78.73,78.73Z"/>
    <circle class="cls-3" cx="188.24" cy="94.7" r="52.48"/>
    <circle class="cls-1" cx="188.24" cy="94.7" r="26.24"/>
  </g>
</svg>